<?xml version="1.0" encoding="UTF-8"?>
<svg id="Layer_1" data-name="Layer 1" xmlns="http://www.w3.org/2000/svg" version="1.1" viewBox="0 0 64 64">
  <defs>
    <style>
      .cls-1 {
        fill: #bcbcbd;
      }

      .cls-1, .cls-2, .cls-3 {
        stroke-width: 0px;
      }

      .cls-2 {
        fill: #fff;
      }

      .cls-3 {
        fill: #707071;
      }
    </style>
  </defs>
  <g id="Artwork_64x64" data-name="Artwork 64x64">
    <path class="cls-3" d="M60.29,17.1c-.53-.16-1.09.13-1.25.66-.06.19-.14.36-.26.52-.18-.82-.77-1.5-1.55-1.8-.88-.36-1.88-.25-2.66.29-.71.53-1.09,1.4-1,2.28.03.76.4,1.48,1,1.95.17.14.36.25.56.35-.19.13-.39.25-.59.36-4.39-5.86-12.43-9.78-21.63-9.78-3.76-.02-7.49.66-11,2h0c-1.51-3-6.12-5.06-8-5.83-.39-.17-.84,0-1.01.4-.02.05-.04.09-.05.14-.48,2-1.46,7,.05,9.92.14.29.3.56.47.83-2.1,1.98-3.71,4.41-4.73,7.11l-3.74,1.5c-.23.08-.41.26-.49.49-.35,1.14-.49,2.32-.41,3.51-.04,1.19.1,2.37.41,3.52.08.23.26.41.49.48l3.76,1.47c1.51,3.95,4.22,7.33,7.76,9.65.58,2.79,1.5,7.46,1.58,7.88.11.62.45,1,1,1h5c.55,0,.89-.39,1-1,0-.24.38-1.93.76-3.84,2.33.54,4.72.81,7.11.81,1.83,0,3.65-.16,5.45-.47.35,1.77.65,3.27.69,3.5.1.62.45,1,1,1h5c.56,0,.9-.39,1-1,.07-.37.78-3.91,1.33-6.67,6.47-3.63,10.71-9.61,10.71-16.33-.02-3.03-.86-5.99-2.43-8.58.25-.14.5-.29.73-.46.62-.49,1.18-1.06,1.65-1.7,1.4-.46,2.51-1.54,3-2.93.15-.53-.17-1.08-.7-1.23,0,0,0,0,0,0ZM56.86,19.1c-.02.17-.07.33-.15.48h-.07c-.3.07-.62,0-.87-.17-.15-.11-.24-.29-.24-.48,0-.4.15-.52.2-.56.12-.08.27-.12.42-.12.12,0,.23.02.34.07.44.19.37.76.37.78Z"/>
    <circle class="cls-2" cx="16.54" cy="24.41" r="1.5"/>
    <path class="cls-1" d="M39.4,19c-.16,0-.31-.02-.46-.07-1.98-.55-4.02-.83-6.07-.84-1.8-.03-3.6.24-5.31.8-.79.25-1.63-.18-1.89-.97-.23-.71.09-1.47.76-1.8,2.07-.72,4.25-1.06,6.44-1,2.37,0,4.72.34,7,1,.76.32,1.12,1.2.81,1.96-.22.52-.71.88-1.28.92Z"/>
  </g>
</svg>